<?xml version="1.0" encoding="utf-8"?>
<!-- Generator: Adobe Illustrator 22.0.1, SVG Export Plug-In . SVG Version: 6.00 Build 0)  -->
<svg version="1.1" id="レイヤー_1" xmlns="http://www.w3.org/2000/svg" xmlns:xlink="http://www.w3.org/1999/xlink" x="0px"
	 y="0px" viewBox="0 0 200 50" style="enable-background:new 0 0 200 50;" xml:space="preserve">
<style type="text/css">
	.st0{fill:#333333;}
</style>
<path class="st0" d="M3.5,6.8c0.9,0,1.7-0.3,2.3-1c1.3-1.3,1.3-3.4,0-4.7c-0.6-0.6-1.4-1-2.3-1c-0.9,0-1.7,0.3-2.3,1
	c-1.3,1.3-1.3,3.4,0,4.7C1.8,6.4,2.6,6.8,3.5,6.8"/>
<path class="st0" d="M199,1c-0.6-0.6-1.5-1-2.3-1c-0.9,0-1.7,0.3-2.3,1c-1.3,1.3-1.3,3.4,0,4.7c0.6,0.6,1.5,1,2.3,1
	c0.9,0,1.7-0.3,2.3-1C200.3,4.4,200.3,2.3,199,1 M198.1,4.7c-0.4,0.4-0.9,0.6-1.4,0.6c-0.5,0-1-0.2-1.4-0.6c-0.8-0.8-0.8-2,0-2.7
	c0.4-0.4,0.9-0.6,1.4-0.6c0.5,0,1,0.2,1.4,0.6C198.8,2.7,198.8,3.9,198.1,4.7"/>
<path class="st0" d="M173.5,42.6c-0.9,0-1.7,0.3-2.3,0.9c-1.2,1.2-1.2,3.3,0,4.5c0.6,0.6,1.4,0.9,2.3,0.9v-0.1l0,0.1
	c0.9,0,1.7-0.3,2.3-0.9c0.6-0.6,0.9-1.4,0.9-2.3c0-0.9-0.3-1.7-0.9-2.3C175.2,43,174.4,42.6,173.5,42.6"/>
<path class="st0" d="M196.6,29.2c-0.6-1.4-1.4-2.7-2.5-3.7l-4.9-4.9v0l-4.2-4.2c-0.2-0.2-0.4-0.5-0.5-0.8c-0.1-0.3-0.2-0.6-0.2-1
	c0-0.7,0.3-1.3,0.7-1.8c0.5-0.5,1.1-0.7,1.8-0.7h0c0.7,0,1.3,0.3,1.8,0.7c0.4,0.4,1,0.7,1.6,0.7h0c0,0,0,0,0,0
	c0.6,0,1.2-0.2,1.6-0.7l3-3l-1.6-1.6c-1.7-1.7-4-2.7-6.4-2.7c-2.4,0-4.7,0.9-6.4,2.7c-1.7,1.7-2.7,4-2.7,6.4c0,1.2,0.2,2.4,0.7,3.5
	c0.5,1.1,1.1,2.1,2,2.9l4.2,4.2h0l4.9,4.9c0.5,0.5,0.8,1,1.1,1.6c0.2,0.6,0.4,1.2,0.4,1.9c0,1.3-0.5,2.6-1.4,3.5
	c-0.9,0.9-2.2,1.4-3.5,1.4c-1.3,0-2.6-0.5-3.5-1.5c-0.6-0.6-1.5-1-2.4-1c-0.9,0-1.7,0.3-2.4,1l-2.3,2.3l2.4,2.4
	c2.2,2.2,5.1,3.4,8.2,3.4l0,0l0,0l0,0c3.1,0,6-1.2,8.1-3.4c2.2-2.2,3.4-5.1,3.4-8.1C197.5,32.1,197.2,30.6,196.6,29.2 M188.2,21.6
	l-2.7,2.7l-4.2-4.2c-0.7-0.7-1.3-1.6-1.7-2.5c-0.4-0.9-0.6-1.9-0.6-2.9c0-2,0.8-4,2.2-5.4c1.4-1.4,3.3-2.2,5.4-2.2l0.1,0
	c2.1,0,4,0.8,5.4,2.3l0.6,0.6l-2,2c-0.2,0.2-0.4,0.3-0.6,0.3c-0.2,0-0.5-0.1-0.6-0.3c-0.7-0.7-1.7-1.2-2.8-1.2h0c-1,0-2,0.4-2.8,1.1
	c-0.7,0.7-1.1,1.7-1.1,2.8c0,0.5,0.1,1,0.3,1.5c0.2,0.5,0.5,0.9,0.8,1.3L188.2,21.6z"/>
<polygon class="st0" points="148.2,18.9 148.1,19.1 148,19.2 147.9,19.1 147.8,18.9 138.5,6 132.2,6 132.2,44.2 138.7,44.2 
	138.7,17.5 138.7,17 138.7,16.7 138.9,17 139.2,17.3 148,29.3 156.8,17.3 157.1,17 157.2,16.7 157.2,17 157.2,17.5 157.2,44.2 
	163.8,44.2 163.8,6 157.5,6 "/>
<polygon class="st0" points="19.6,12.6 26.3,12.6 26.4,12.6 26.5,12.6 26.5,12.7 26.5,12.9 26.5,44.2 33.5,44.2 33.5,12.9 
	33.5,12.7 33.5,12.6 33.6,12.6 33.8,12.6 40.4,12.6 40.4,6 19.6,6 "/>
<polygon class="st0" points="95.5,6 95.5,13.3 95.5,19.7 95.5,27.1 95.5,37 95.5,44.2 102.8,44.2 116.3,44.2 116.3,37.2 102.8,37.2 
	102.6,37.2 102.5,37.2 102.5,37.1 102.5,37 102.5,27.1 102.5,27 102.5,26.9 102.6,26.9 102.8,26.9 116.3,26.9 116.3,19.9 
	102.8,19.9 102.6,19.9 102.5,19.9 102.5,19.8 102.5,19.7 102.5,13.3 102.5,13.1 102.5,13 102.6,13 102.8,13 116.3,13 116.3,6 
	102.8,6 "/>
<rect y="13.5" class="st0" width="7" height="30.7"/>
<polygon class="st0" points="73,19.7 73,19.8 73,19.9 72.9,19.9 72.8,19.9 60.5,19.9 60.4,19.9 60.3,19.9 60.3,19.8 60.3,19.7 
	60.3,6 53.3,6 53.3,44.2 60.3,44.2 60.3,27.1 60.3,27 60.3,26.9 60.4,26.9 60.5,26.9 72.8,26.9 72.9,26.9 73,26.9 73,27 73,27.1 
	73,44.2 80,44.2 80,6 73,6 "/>
</svg>
